---
title: edu.nust.game
config:
  look: classic
  layout: elk
  flowchart:
    curve: linear
  class:
    defaultRenderer: dagre-wrapper
---
classDiagram
  class MainWorld
class Package_edu_nust_game_scenes <<package>>
class Package_edu_nust_game_systems <<package>>
Package_edu_nust_game_scenes --> Package_edu_nust_game_systems : uses
Package_edu_nust_game_systems --> Package_edu_nust_game_scenes : uses